<svg width="138" height="67" viewBox="0 0 138 67" fill="none" xmlns="http://www.w3.org/2000/svg">
<path d="M22.6885 14.0374C22.6885 6.87708 28.493 1.07251 35.6533 1.07251H118.304V52.932C118.304 60.0923 112.5 65.8969 105.34 65.8969H35.6533C28.493 65.8969 22.6885 60.0923 22.6885 52.932V14.0374Z" stroke="#28ABE2" stroke-width="1.62061"/>
<path d="M50.7023 18.9463H58.6598V46.8828H53.3801V23.9411H47.6257L50.7023 18.9463ZM66.5141 46.8828V31.8598H71.5606V37.1397H72.99L75.9655 31.8598H81.4496L77.0448 39.0067V39.065L82.0622 46.8828H76.3155L73.1359 41.3695H71.5606V46.8828H66.5141ZM82.4362 46.8828V31.8598H93.0252V36.0896H87.4827V46.8828H82.4362Z" fill="#28ABE2"/>
</svg>
