<svg width="138" height="67" viewBox="0 0 138 67" fill="none" xmlns="http://www.w3.org/2000/svg">
<path d="M35.6533 1.10303H118.304V52.9625C118.304 60.1228 112.5 65.9274 105.34 65.9274H35.6533C28.493 65.9274 22.6885 60.1228 22.6885 52.9625V14.0679C22.6885 6.9076 28.493 1.10303 35.6533 1.10303Z" stroke="#28ABE2" stroke-width="1.62061"/>
<path d="M40.4424 18.9768H48.3998V46.9133H43.1202V23.9716H37.3657L40.4424 18.9768ZM56.1164 18.9768H69.2016V23.8766H60.0857L58.9462 28.9664C59.2627 28.8777 59.5729 28.8144 59.8768 28.7764C60.1806 28.7258 60.4718 28.7005 60.7504 28.7005C63.2826 28.7005 65.3843 29.5677 67.0555 31.3023C68.7395 33.0242 69.5814 35.2336 69.5814 37.9303C69.5814 40.6525 68.6508 42.9504 66.7897 44.8243C64.9412 46.6854 62.6875 47.616 60.0287 47.616C57.6484 47.616 55.6037 46.9387 53.8944 45.5839C52.1852 44.2292 51.0647 42.3744 50.5329 40.0194H56.1164C56.5469 40.893 57.1103 41.5577 57.8067 42.0135C58.5157 42.4567 59.2943 42.6782 60.1426 42.6782C61.3201 42.6782 62.3203 42.2541 63.1433 41.4058C63.9663 40.5575 64.3777 39.4687 64.3777 38.1393C64.3777 36.8478 63.9916 35.7906 63.2193 34.9677C62.4596 34.132 61.5353 33.7142 60.4465 33.7142C59.8641 33.7142 59.288 33.8598 58.7183 34.151C58.1612 34.4422 57.6104 34.879 57.066 35.4614L52.7359 34.4929L56.1164 18.9768ZM76.774 46.9133V31.8903H81.8206V37.1702H83.25L86.2254 31.8903H91.7096L87.3047 39.0372V39.0955L92.3222 46.9133H86.5755L83.3958 41.4H81.8206V46.9133H76.774ZM92.6961 46.9133V31.8903H103.285V36.1201H97.7427V46.9133H92.6961Z" fill="#28ABE2"/>
</svg>
