<svg width="139" height="68" viewBox="0 0 139 68" fill="none" xmlns="http://www.w3.org/2000/svg">
<path d="M21.6885 14.7143C21.6885 7.55396 27.493 1.74939 34.6533 1.74939H117.304V53.6089C117.304 60.7692 111.5 66.5737 104.34 66.5737H34.6533C27.493 66.5737 21.6885 60.7692 21.6885 53.6089V14.7143Z" stroke="#28ABE2" stroke-width="1.62061"/>
<path d="M38.5871 28.6038H33.6184C33.7519 25.716 34.6558 23.4471 36.3302 21.7969C38.0168 20.1346 40.1766 19.3035 42.8095 19.3035C44.4354 19.3035 45.8671 19.6493 47.1048 20.3409C48.3545 21.0204 49.3495 22.0093 50.0896 23.3075C50.8419 24.5937 51.218 25.9041 51.218 27.2388C51.218 28.8283 50.763 30.5391 49.853 32.3712C48.9551 34.2034 47.305 36.3692 44.9025 38.8687L41.8995 42.0355H51.4364V46.7494H32.8904V44.3106L41.1715 35.8657C43.1735 33.8394 44.5021 32.2135 45.1573 30.988C45.8247 29.7504 46.1584 28.6341 46.1584 27.6392C46.1584 26.6078 45.8125 25.7585 45.1209 25.0912C44.4415 24.4117 43.5618 24.0719 42.4819 24.0719C41.3899 24.0719 40.4799 24.4784 39.7519 25.2914C39.0239 26.1043 38.6356 27.2084 38.5871 28.6038ZM53.886 42.3655L56.9722 43.9165L53.0631 50.5952L50.9107 49.5665L53.886 42.3655ZM62.0204 19.9769H74.5603V24.6725H65.8243L64.7322 29.5502C65.0356 29.4653 65.3328 29.4046 65.6241 29.3682C65.9153 29.3197 66.1943 29.2954 66.4613 29.2954C68.888 29.2954 70.9021 30.1265 72.5037 31.7888C74.1175 33.439 74.9244 35.5563 74.9244 38.1407C74.9244 40.7494 74.0325 42.9516 72.2489 44.7474C70.4774 46.531 68.3177 47.4228 65.7697 47.4228C63.4886 47.4228 61.529 46.7737 59.891 45.4754C58.253 44.1771 57.1792 42.3995 56.6696 40.1427H62.0204C62.4329 40.9799 62.9729 41.6169 63.6402 42.0537C64.3197 42.4784 65.0659 42.6907 65.8789 42.6907C67.0073 42.6907 67.9658 42.2843 68.7545 41.4713C69.5432 40.6584 69.9375 39.6149 69.9375 38.3409C69.9375 37.1033 69.5674 36.0901 68.8273 35.3015C68.0993 34.5007 67.2135 34.1003 66.1701 34.1003C65.6119 34.1003 65.0598 34.2398 64.5138 34.5189C63.98 34.7979 63.4522 35.2165 62.9304 35.7747L58.7808 34.8465L62.0204 19.9769ZM79.9679 46.7494V31.7263H85.0144V37.0063H86.4438L89.4192 31.7263H94.9034L90.4986 38.8732V38.9316L95.516 46.7494H89.7693L86.5897 41.2361H85.0144V46.7494H79.9679ZM95.89 46.7494V31.7263H106.479V35.9561H100.937V46.7494H95.89Z" fill="#28ABE2"/>
</svg>
