<svg width="139" height="68" viewBox="0 0 139 68" fill="none" xmlns="http://www.w3.org/2000/svg">
<path d="M22.6885 14.3911C22.6885 7.23084 28.493 1.42627 35.6533 1.42627H118.304V53.2858C118.304 60.4461 112.5 66.2506 105.34 66.2506H35.6533C28.493 66.2506 22.6885 60.4461 22.6885 53.2858V14.3911Z" stroke="#28ABE2" stroke-width="1.62061"/>
<path d="M47.4485 21.731H65.7753V24.5227L53.1649 50.3702L48.6639 48.1861L59.1472 26.7257H47.4485V21.731ZM67.3244 49.6675V34.6444H72.3709V39.9244H73.8003L76.7758 34.6444H82.2599L77.8551 41.7913V41.8497L82.8725 49.6675H77.1258L73.9462 44.1542H72.3709V49.6675H67.3244ZM83.2465 49.6675V34.6444H93.8355V38.8742H88.293V49.6675H83.2465Z" fill="#28ABE2"/>
</svg>
