<svg width="88" height="88" viewBox="0 0 88 88" fill="none" xmlns="http://www.w3.org/2000/svg">
<g clip-path="url(#clip0_48_84)">
<g clip-path="url(#clip1_48_84)">
<path d="M44.6296 87C68.3779 87 87.6296 67.7482 87.6296 44C87.6296 20.2518 68.3779 1 44.6296 1C20.8814 1 1.62964 20.2518 1.62964 44C1.62964 67.7482 20.8814 87 44.6296 87Z" fill="#28ABE2"/>
<path d="M36.6842 64.938C38.2075 64.5842 39.7289 64.2303 41.2523 63.8765C41.7548 65.1858 43.5363 66.1013 45.5366 66.0833C47.5034 66.0653 49.2258 65.1518 49.7106 63.8626C51.5571 64.3623 53.4057 64.862 55.2522 65.3617C52.4223 65.2878 47.665 65.3677 46.6323 66.9369C46.3781 67.3226 46.4313 67.6724 46.453 67.8184C46.7092 69.6194 46.652 74.4947 46.3446 82.0705C46.3722 82.6342 45.8953 83.004 45.5504 83C45.2292 82.996 44.8252 82.6602 44.7858 82.1764C44.971 80.5433 45.9445 71.6742 45.0479 68.2561C44.9671 67.9503 44.8114 67.4566 44.3029 66.9369C42.5786 65.1718 38.6293 64.956 36.6842 64.938Z" fill="white"/>
<path d="M45.0617 67.9963C45.6844 69.8033 50.8102 70.4009 54.4836 68.47C59.103 66.0413 59.9287 60.3985 60.0312 59.6129C57.7826 59.5569 53.5436 59.7988 49.5391 62.5093C49.0307 62.8511 44.3877 66.0414 45.0617 67.9963Z" fill="white"/>
<path d="M46.0175 68.0023C45.3967 69.8033 40.2945 70.3969 36.6369 68.474C32.0372 66.0553 31.2154 60.4384 31.113 59.6549C33.3517 59.5989 37.573 59.8408 41.5597 62.5393C42.0642 62.8811 46.6875 66.0573 46.0175 68.0023Z" fill="white"/>
<path d="M45.0558 58.7854C45.6351 60.7563 50.3984 61.4059 53.8136 59.3011C58.1078 56.6525 58.8744 50.5039 58.971 49.6464C56.882 49.5845 52.9406 49.8503 49.2179 52.8027C48.7469 53.1785 44.431 56.6565 45.0558 58.7854Z" fill="white"/>
<path d="M46.0214 58.7854C45.442 60.7563 40.6788 61.4059 37.2636 59.3011C32.9694 56.6525 32.2028 50.5039 32.1062 49.6464C34.1952 49.5845 38.1366 49.8503 41.8593 52.8027C42.3303 53.1785 46.6481 56.6565 46.0214 58.7854Z" fill="white"/>
<path d="M44.8212 49.0468C45.3395 50.8577 49.6081 51.4554 52.6667 49.5205C56.5135 47.0878 57.2013 41.437 57.286 40.6494C55.4138 40.5934 51.8843 40.8353 48.5498 43.5498C48.1281 43.8936 44.2616 47.0898 44.8212 49.0468Z" fill="white"/>
<path d="M44.297 40.1237C44.7877 41.8327 48.8139 42.3964 51.699 40.5714C55.3291 38.2747 55.9774 32.9437 56.0582 32.2001C54.2925 32.1481 50.962 32.376 47.8148 34.9366C47.4167 35.2624 43.7669 38.2787 44.297 40.1237Z" fill="white"/>
<path d="M45.8539 49.2906C45.3356 51.1016 41.067 51.6993 38.0085 49.7644C34.1617 47.3317 33.4739 41.6808 33.3891 40.8933C35.2613 40.8373 38.7909 41.0792 42.1253 43.7937C42.549 44.1375 46.4155 47.3337 45.8539 49.2906Z" fill="white"/>
<path d="M45.8578 40.3695C45.3671 42.0786 41.341 42.6423 38.4558 40.8173C34.8258 38.5206 34.1774 33.1895 34.0966 32.4459C35.8624 32.394 39.1929 32.6218 42.3401 35.1824C42.7382 35.5082 46.386 38.5226 45.8578 40.3695Z" fill="white"/>
<path d="M44.5808 20.8463C46.0746 20.9603 47.259 19.0733 47.4324 18.7975C49.8525 14.9456 44.9671 7.74959 44.4488 7C43.8438 8.19334 40.1428 15.6412 42.4958 19.2372C42.7756 19.663 43.4949 20.7644 44.5808 20.8463Z" fill="white"/>
<path d="M44.5158 32.1261C45.1267 33.4114 49.1844 33.4694 51.9335 31.7743C55.3902 29.6435 55.6542 25.4298 55.6818 24.8441C53.9161 24.9701 50.6092 25.4638 47.6551 27.7545C47.2787 28.0444 43.8536 30.7389 44.5158 32.1261Z" fill="white"/>
<path d="M44.4291 25.07C44.971 26.3693 48.4611 26.4852 50.8004 24.8201C53.7427 22.7253 53.9141 18.4936 53.9299 17.904C52.4144 18.0059 49.5766 18.4557 47.0679 20.7184C46.7486 21.0063 43.8418 23.6668 44.4291 25.07Z" fill="white"/>
<path d="M45.5031 32.1681C44.8922 33.4534 40.8345 33.5113 38.0853 31.8163C34.6287 29.6855 34.3646 25.4718 34.3371 24.8861C36.1028 25.012 39.4097 25.5058 42.3638 27.7965C42.7402 28.0863 46.1633 30.7808 45.5031 32.1681Z" fill="white"/>
<path d="M45.5898 25.112C45.0479 26.4113 41.5577 26.5272 39.2185 24.8621C36.2762 22.7673 36.1048 18.5356 36.089 17.9459C37.6045 18.0479 40.4423 18.4976 42.951 20.7604C43.2683 21.0462 46.1771 23.7068 45.5898 25.112Z" fill="white"/>
<path d="M23.6124 57.4482C24.379 56.1789 25.4314 55.0135 26.6453 53.9941C26.6375 53.9621 26.6276 53.9301 26.6197 53.8981C24.8638 47.1778 24.6924 37.775 29.3235 24.6623C29.0417 24.8662 27.6741 25.8077 25.8768 25.4838C24.7456 25.2799 23.9888 24.6723 23.6597 24.3704C19.0482 40.2777 21.0998 50.9018 23.5257 57.4162C23.5395 57.4542 23.5553 57.4901 23.5691 57.5261C23.5829 57.5001 23.5967 57.4741 23.6124 57.4482Z" fill="white"/>
<path d="M15.6744 55.857C13.8416 48.8129 12.4247 38.6605 16.2439 28.3722C16.2498 28.3562 16.2557 28.3403 16.2636 28.3223C16.506 28.804 16.7642 29.2757 17.0401 29.7335C17.249 30.0813 17.4855 30.4171 17.7377 30.7469C17.5899 31.1607 17.448 31.5825 17.3121 32.0142C14.352 41.465 15.7749 50.2821 17.1485 55.6851C17.8205 54.9855 18.4945 54.2839 19.1665 53.5843C18.9694 56.4287 18.7704 59.2751 18.5733 62.1196L12.6296 55.0135C13.6426 55.2933 14.6595 55.5752 15.6744 55.857Z" fill="white"/>
<path d="M66.6469 57.4482C65.8803 56.1789 64.8279 55.0135 63.6139 53.9941C63.6218 53.9621 63.6317 53.9301 63.6396 53.8981C65.3955 47.1778 65.5669 37.775 60.9357 24.6623C61.2175 24.8662 62.5852 25.8077 64.3825 25.4838C65.5137 25.2799 66.2705 24.6723 66.5996 24.3704C71.211 40.2777 69.1595 50.9018 66.7336 57.4162C66.7198 57.4542 66.704 57.4901 66.6902 57.5261C66.6764 57.5001 66.6626 57.4741 66.6469 57.4482Z" fill="white"/>
<path d="M74.5849 55.857C76.4177 48.8129 77.8346 38.6605 74.0154 28.3722C74.0094 28.3562 74.0035 28.3403 73.9956 28.3223C73.7532 28.804 73.4951 29.2757 73.2192 29.7335C73.0103 30.0813 72.7738 30.4171 72.5216 30.7469C72.6694 31.1607 72.8112 31.5825 72.9472 32.0142C75.9072 41.465 74.4844 50.2821 73.1108 55.6851C72.4388 54.9855 71.7648 54.2839 71.0928 53.5843C71.2899 56.4287 71.4889 59.2751 71.686 62.1196L77.6296 55.0135C76.6147 55.2933 75.5998 55.5752 74.5849 55.857Z" fill="white"/>
</g>
</g>
<defs>
<clipPath id="clip0_48_84">
<rect width="86.5644" height="86.5644" fill="white" transform="translate(0.708984 0.708984)"/>
</clipPath>
<clipPath id="clip1_48_84">
<rect width="86" height="86" fill="white" transform="translate(1.62964 1)"/>
</clipPath>
</defs>
</svg>
