<svg width="165" height="165" viewBox="0 0 165 165" fill="none" xmlns="http://www.w3.org/2000/svg">
<g filter="url(#filter0_dd_168_4)">
<circle cx="88.545" cy="87.545" r="53.545" fill="#E7F3FF"/>
</g>
<g clip-path="url(#clip0_168_4)">
<g clip-path="url(#clip1_168_4)">
<path d="M89.6296 131C113.378 131 132.63 111.748 132.63 88C132.63 64.2518 113.378 45 89.6296 45C65.8814 45 46.6296 64.2518 46.6296 88C46.6296 111.748 65.8814 131 89.6296 131Z" fill="#28ABE2"/>
<path d="M81.6842 108.938C83.2075 108.584 84.7289 108.23 86.2523 107.877C86.7548 109.186 88.5363 110.101 90.5366 110.083C92.5034 110.065 94.2258 109.152 94.7106 107.863C96.5571 108.362 98.4057 108.862 100.252 109.362C97.4223 109.288 92.665 109.368 91.6323 110.937C91.3781 111.323 91.4313 111.672 91.453 111.818C91.7092 113.619 91.652 118.495 91.3446 126.07C91.3722 126.634 90.8953 127.004 90.5504 127C90.2292 126.996 89.8252 126.66 89.7858 126.176C89.971 124.543 90.9445 115.674 90.0479 112.256C89.9671 111.95 89.8114 111.457 89.3029 110.937C87.5786 109.172 83.6293 108.956 81.6842 108.938Z" fill="white"/>
<path d="M90.0617 111.996C90.6844 113.803 95.8102 114.401 99.4836 112.47C104.103 110.041 104.929 104.398 105.031 103.613C102.783 103.557 98.5436 103.799 94.5391 106.509C94.0307 106.851 89.3877 110.041 90.0617 111.996Z" fill="white"/>
<path d="M91.0175 112.002C90.3967 113.803 85.2945 114.397 81.6369 112.474C77.0372 110.055 76.2154 104.438 76.113 103.655C78.3517 103.599 82.573 103.841 86.5597 106.539C87.0642 106.881 91.6875 110.057 91.0175 112.002Z" fill="white"/>
<path d="M90.0558 102.785C90.6351 104.756 95.3984 105.406 98.8136 103.301C103.108 100.653 103.874 94.5039 103.971 93.6464C101.882 93.5845 97.9406 93.8503 94.2179 96.8027C93.7469 97.1785 89.431 100.657 90.0558 102.785Z" fill="white"/>
<path d="M91.0214 102.785C90.442 104.756 85.6788 105.406 82.2636 103.301C77.9694 100.653 77.2028 94.5039 77.1062 93.6464C79.1952 93.5845 83.1366 93.8503 86.8593 96.8027C87.3303 97.1785 91.6481 100.657 91.0214 102.785Z" fill="white"/>
<path d="M89.8212 93.0468C90.3395 94.8577 94.6081 95.4554 97.6667 93.5205C101.513 91.0878 102.201 85.437 102.286 84.6494C100.414 84.5934 96.8843 84.8353 93.5498 87.5498C93.1281 87.8936 89.2616 91.0898 89.8212 93.0468Z" fill="white"/>
<path d="M89.297 84.1237C89.7877 85.8327 93.8139 86.3964 96.699 84.5714C100.329 82.2747 100.977 76.9437 101.058 76.2001C99.2925 76.1481 95.962 76.376 92.8148 78.9366C92.4167 79.2624 88.7669 82.2787 89.297 84.1237Z" fill="white"/>
<path d="M90.8539 93.2906C90.3356 95.1016 86.067 95.6993 83.0085 93.7644C79.1617 91.3317 78.4739 85.6808 78.3891 84.8933C80.2613 84.8373 83.7909 85.0792 87.1253 87.7937C87.549 88.1375 91.4155 91.3337 90.8539 93.2906Z" fill="white"/>
<path d="M90.8578 84.3695C90.3671 86.0786 86.341 86.6423 83.4558 84.8173C79.8258 82.5206 79.1774 77.1895 79.0966 76.4459C80.8624 76.394 84.1929 76.6218 87.3401 79.1824C87.7382 79.5082 91.386 82.5226 90.8578 84.3695Z" fill="white"/>
<path d="M89.5808 64.8463C91.0746 64.9603 92.259 63.0733 92.4324 62.7975C94.8525 58.9456 89.9671 51.7496 89.4488 51C88.8438 52.1933 85.1428 59.6412 87.4958 63.2372C87.7756 63.663 88.4949 64.7644 89.5808 64.8463Z" fill="white"/>
<path d="M89.5158 76.1261C90.1267 77.4114 94.1844 77.4694 96.9335 75.7743C100.39 73.6435 100.654 69.4298 100.682 68.8441C98.9161 68.9701 95.6092 69.4638 92.6551 71.7545C92.2787 72.0444 88.8536 74.7389 89.5158 76.1261Z" fill="white"/>
<path d="M89.4291 69.07C89.971 70.3693 93.4611 70.4852 95.8004 68.8201C98.7427 66.7253 98.9141 62.4936 98.9299 61.904C97.4144 62.0059 94.5766 62.4557 92.0679 64.7184C91.7486 65.0063 88.8418 67.6668 89.4291 69.07Z" fill="white"/>
<path d="M90.5031 76.1681C89.8922 77.4534 85.8345 77.5113 83.0853 75.8163C79.6287 73.6855 79.3646 69.4718 79.3371 68.8861C81.1028 69.012 84.4097 69.5058 87.3638 71.7965C87.7402 72.0863 91.1633 74.7808 90.5031 76.1681Z" fill="white"/>
<path d="M90.5898 69.112C90.0479 70.4113 86.5577 70.5272 84.2185 68.8621C81.2762 66.7673 81.1048 62.5356 81.089 61.9459C82.6045 62.0479 85.4423 62.4976 87.951 64.7604C88.2683 65.0462 91.1771 67.7068 90.5898 69.112Z" fill="white"/>
<path d="M68.6124 101.448C69.379 100.179 70.4314 99.0135 71.6453 97.9941C71.6375 97.9621 71.6276 97.9301 71.6197 97.8981C69.8638 91.1778 69.6924 81.775 74.3235 68.6623C74.0417 68.8662 72.6741 69.8077 70.8768 69.4838C69.7456 69.2799 68.9888 68.6723 68.6597 68.3704C64.0482 84.2777 66.0998 94.9018 68.5257 101.416C68.5395 101.454 68.5553 101.49 68.5691 101.526C68.5829 101.5 68.5967 101.474 68.6124 101.448Z" fill="white"/>
<path d="M60.6744 99.857C58.8416 92.8129 57.4247 82.6605 61.2439 72.3722C61.2498 72.3562 61.2557 72.3403 61.2636 72.3223C61.506 72.804 61.7642 73.2757 62.0401 73.7335C62.249 74.0813 62.4855 74.4171 62.7377 74.7469C62.5899 75.1607 62.448 75.5825 62.3121 76.0142C59.352 85.465 60.7749 94.2821 62.1485 99.6851C62.8205 98.9855 63.4945 98.2839 64.1665 97.5843C63.9694 100.429 63.7704 103.275 63.5733 106.12L57.6296 99.0135C58.6426 99.2933 59.6595 99.5752 60.6744 99.857Z" fill="white"/>
<path d="M111.647 101.448C110.88 100.179 109.828 99.0135 108.614 97.9941C108.622 97.9621 108.632 97.9301 108.64 97.8981C110.395 91.1778 110.567 81.775 105.936 68.6623C106.218 68.8662 107.585 69.8077 109.383 69.4838C110.514 69.2799 111.27 68.6723 111.6 68.3704C116.211 84.2777 114.16 94.9018 111.734 101.416C111.72 101.454 111.704 101.49 111.69 101.526C111.676 101.5 111.663 101.474 111.647 101.448Z" fill="white"/>
<path d="M119.585 99.857C121.418 92.8129 122.835 82.6605 119.015 72.3722C119.009 72.3562 119.004 72.3403 118.996 72.3223C118.753 72.804 118.495 73.2757 118.219 73.7335C118.01 74.0813 117.774 74.4171 117.522 74.7469C117.669 75.1607 117.811 75.5825 117.947 76.0142C120.907 85.465 119.484 94.2821 118.111 99.6851C117.439 98.9855 116.765 98.2839 116.093 97.5843C116.29 100.429 116.489 103.275 116.686 106.12L122.63 99.0135C121.615 99.2933 120.6 99.5752 119.585 99.857Z" fill="white"/>
</g>
</g>
<defs>
<filter id="filter0_dd_168_4" x="0.195766" y="0.0881829" width="164.204" height="164.204" filterUnits="userSpaceOnUse" color-interpolation-filters="sRGB">
<feFlood flood-opacity="0" result="BackgroundImageFix"/>
<feColorMatrix in="SourceAlpha" type="matrix" values="0 0 0 0 0 0 0 0 0 0 0 0 0 0 0 0 0 0 127 0" result="hardAlpha"/>
<feOffset dx="-6.24691" dy="-5.3545"/>
<feGaussianBlur stdDeviation="14.2787"/>
<feComposite in2="hardAlpha" operator="out"/>
<feColorMatrix type="matrix" values="0 0 0 0 1 0 0 0 0 1 0 0 0 0 1 0 0 0 0.89 0"/>
<feBlend mode="normal" in2="BackgroundImageFix" result="effect1_dropShadow_168_4"/>
<feColorMatrix in="SourceAlpha" type="matrix" values="0 0 0 0 0 0 0 0 0 0 0 0 0 0 0 0 0 0 127 0" result="hardAlpha"/>
<feOffset dx="4.46208" dy="2.67725"/>
<feGaussianBlur stdDeviation="6.24691"/>
<feComposite in2="hardAlpha" operator="out"/>
<feColorMatrix type="matrix" values="0 0 0 0 0.49901 0 0 0 0 0.737409 0 0 0 0 0.8375 0 0 0 0.33 0"/>
<feBlend mode="normal" in2="effect1_dropShadow_168_4" result="effect2_dropShadow_168_4"/>
<feBlend mode="normal" in="SourceGraphic" in2="effect2_dropShadow_168_4" result="shape"/>
</filter>
<clipPath id="clip0_168_4">
<rect width="86.5644" height="86.5644" fill="white" transform="translate(45.709 44.709)"/>
</clipPath>
<clipPath id="clip1_168_4">
<rect width="86" height="86" fill="white" transform="translate(46.6296 45)"/>
</clipPath>
</defs>
</svg>

