<svg width="88" height="88" viewBox="0 0 88 88" fill="none" xmlns="http://www.w3.org/2000/svg">
<g clip-path="url(#clip0_48_93)">
<path d="M43.9514 87.1972C67.8555 87.1972 87.2336 67.8191 87.2336 43.915C87.2336 20.0109 67.8555 0.632812 43.9514 0.632812C20.0473 0.632812 0.669189 20.0109 0.669189 43.915C0.669189 67.8191 20.0473 87.1972 43.9514 87.1972Z" fill="#28ABE2"/>
<path d="M51.8495 12.8004C51.4011 12.4368 50.3917 11.7183 48.9011 11.4604C47.3325 11.1886 46.086 11.5764 45.5441 11.7789C43.3263 15.8423 41.1103 19.9056 38.8925 23.9689C37.665 26.3114 36.3596 27.9336 35.4074 28.9723C33.5775 30.972 32.6582 31.2438 31.4757 33.1724C30.7832 34.3012 29.438 36.4931 30.224 38.5342C30.662 39.67 31.5899 40.3209 32.118 40.6897C33.7627 41.841 34.7392 41.3649 36.3008 42.1076C38.851 43.3213 38.3073 45.5737 40.2931 46.3856C42.7135 47.3759 46.7699 45.3572 47.7584 42.4677C48.3817 40.6481 47.6978 38.7403 47.1127 37.1042C46.3648 35.0163 45.5095 34.3359 45.1598 32.3103C44.9157 30.9027 45.0646 29.6926 45.2238 28.8962C47.433 23.5309 49.6404 18.1656 51.8495 12.8004Z" fill="white"/>
<path d="M27.4902 33.4597C26.7336 33.1187 25.7243 33.4372 25.3503 34.225C23.4476 38.8354 24.2284 43.5099 27.3153 45.9891C28.0061 46.5448 29.315 47.3914 31.4583 47.7584C32.3811 47.9194 33.2762 47.5282 33.6432 46.8391C34.0708 46.0341 33.5566 45.2273 33.5168 45.165C32.717 44.7841 30.5823 43.6484 29.2094 41.2592C27.6339 38.5203 28.0996 35.9424 28.2658 35.1927C28.4961 34.4933 28.1429 33.754 27.4902 33.4597Z" fill="white"/>
<path d="M54.2612 51.7595C54.4516 50.996 54.4568 50.6134 54.7979 50.4195C55.5112 50.0144 57.0538 50.8056 57.3896 51.8946C57.6632 52.7844 57.0728 53.683 56.9482 53.8942C56.1275 55.2931 56.7058 59.0759 62.5731 69.3632C62.58 69.4948 62.587 70.009 62.2165 70.4349C61.8373 70.8695 61.2123 71.0409 60.6081 70.8816C57.5645 64.3633 55.4921 60.7328 53.9963 58.7297C53.5185 58.0908 52.6355 56.9932 52.7446 55.603C52.845 54.3132 53.7003 54.0154 54.2612 51.7595Z" fill="white"/>
<path d="M52.6527 75.305C53.2916 75.3621 55.061 75.4331 56.8979 74.3666C58.4941 73.4404 59.294 72.1437 59.6056 71.5654C57.5436 68.3539 55.9837 65.5198 54.8532 63.3141C51.6157 56.9984 51.6971 55.454 52.142 54.3599C52.6718 53.0545 53.7435 52.3239 53.9045 50.3744C53.9443 49.8845 54.0257 48.7245 53.3903 47.5646C52.5783 46.0809 50.8955 45.1408 49.3477 45.0577C46.5707 44.907 46.1673 47.6234 43.0476 48.1844C39.7218 48.7834 38.3852 46.0168 35.7658 46.9326C33.6917 47.6581 32.1231 50.2342 32.2807 52.7861C32.4729 55.8696 35.1512 58.3557 37.2841 58.3713C38.3281 58.3782 38.6501 57.7896 39.6975 57.8346C41.479 57.9125 42.8606 59.7217 43.7851 61.3422C45.1476 63.3297 46.5119 65.3172 47.8744 67.3064C49.4672 69.9726 51.06 72.6388 52.6527 75.305Z" fill="white"/>
</g>
<defs>
<clipPath id="clip0_48_93">
<rect width="86.5644" height="86.5644" fill="white" transform="translate(0.708984 0.708984)"/>
</clipPath>
</defs>
</svg>
