<svg width="165" height="165" viewBox="0 0 165 165" fill="none" xmlns="http://www.w3.org/2000/svg">
<g filter="url(#filter0_dd_169_6)">
<circle cx="88.545" cy="87.545" r="53.545" fill="#E7F3FF"/>
</g>
<g clip-path="url(#clip0_169_6)">
<path d="M88.9514 131.197C112.855 131.197 132.234 111.819 132.234 87.915C132.234 64.0109 112.855 44.6328 88.9514 44.6328C65.0473 44.6328 45.6692 64.0109 45.6692 87.915C45.6692 111.819 65.0473 131.197 88.9514 131.197Z" fill="#28ABE2"/>
<path d="M96.8495 56.8004C96.4011 56.4368 95.3917 55.7183 93.9011 55.4604C92.3325 55.1886 91.086 55.5764 90.5441 55.7789C88.3263 59.8423 86.1103 63.9056 83.8925 67.9689C82.665 70.3114 81.3596 71.9336 80.4074 72.9723C78.5775 74.972 77.6582 75.2438 76.4757 77.1724C75.7832 78.3012 74.438 80.4931 75.224 82.5342C75.662 83.67 76.5899 84.3209 77.118 84.6897C78.7627 85.841 79.7392 85.3649 81.3008 86.1076C83.851 87.3213 83.3073 89.5737 85.2931 90.3856C87.7135 91.3759 91.7699 89.3572 92.7584 86.4677C93.3817 84.6481 92.6978 82.7403 92.1127 81.1042C91.3648 79.0163 90.5095 78.3359 90.1598 76.3103C89.9157 74.9027 90.0646 73.6926 90.2238 72.8962C92.433 67.5309 94.6404 62.1656 96.8495 56.8004Z" fill="white"/>
<path d="M72.4902 77.4597C71.7336 77.1187 70.7243 77.4372 70.3503 78.225C68.4476 82.8354 69.2284 87.5099 72.3153 89.9891C73.0061 90.5448 74.315 91.3914 76.4583 91.7584C77.3811 91.9194 78.2762 91.5282 78.6432 90.8391C79.0708 90.0341 78.5566 89.2273 78.5168 89.165C77.717 88.7841 75.5823 87.6484 74.2094 85.2592C72.6339 82.5203 73.0996 79.9424 73.2658 79.1927C73.4961 78.4933 73.1429 77.754 72.4902 77.4597Z" fill="white"/>
<path d="M99.2612 95.7595C99.4516 94.996 99.4568 94.6134 99.7979 94.4195C100.511 94.0144 102.054 94.8056 102.39 95.8946C102.663 96.7844 102.073 97.683 101.948 97.8942C101.128 99.2931 101.706 103.076 107.573 113.363C107.58 113.495 107.587 114.009 107.216 114.435C106.837 114.869 106.212 115.041 105.608 114.882C102.564 108.363 100.492 104.733 98.9963 102.73C98.5185 102.091 97.6355 100.993 97.7446 99.603C97.845 98.3132 98.7003 98.0154 99.2612 95.7595Z" fill="white"/>
<path d="M97.6527 119.305C98.2916 119.362 100.061 119.433 101.898 118.367C103.494 117.44 104.294 116.144 104.606 115.565C102.544 112.354 100.984 109.52 99.8532 107.314C96.6157 100.998 96.6971 99.454 97.142 98.3599C97.6718 97.0545 98.7435 96.3239 98.9045 94.3744C98.9443 93.8845 99.0257 92.7245 98.3903 91.5646C97.5783 90.0809 95.8955 89.1408 94.3477 89.0577C91.5707 88.907 91.1673 91.6234 88.0476 92.1844C84.7218 92.7834 83.3852 90.0168 80.7658 90.9326C78.6917 91.6581 77.1231 94.2342 77.2807 96.7861C77.4729 99.8696 80.1512 102.356 82.2841 102.371C83.3281 102.378 83.6501 101.79 84.6975 101.835C86.479 101.912 87.8606 103.722 88.7851 105.342C90.1476 107.33 91.5119 109.317 92.8744 111.306C94.4672 113.973 96.06 116.639 97.6527 119.305Z" fill="white"/>
</g>
<defs>
<filter id="filter0_dd_169_6" x="0.195766" y="0.0881829" width="164.204" height="164.204" filterUnits="userSpaceOnUse" color-interpolation-filters="sRGB">
<feFlood flood-opacity="0" result="BackgroundImageFix"/>
<feColorMatrix in="SourceAlpha" type="matrix" values="0 0 0 0 0 0 0 0 0 0 0 0 0 0 0 0 0 0 127 0" result="hardAlpha"/>
<feOffset dx="-6.24691" dy="-5.3545"/>
<feGaussianBlur stdDeviation="14.2787"/>
<feComposite in2="hardAlpha" operator="out"/>
<feColorMatrix type="matrix" values="0 0 0 0 1 0 0 0 0 1 0 0 0 0 1 0 0 0 0.89 0"/>
<feBlend mode="normal" in2="BackgroundImageFix" result="effect1_dropShadow_169_6"/>
<feColorMatrix in="SourceAlpha" type="matrix" values="0 0 0 0 0 0 0 0 0 0 0 0 0 0 0 0 0 0 127 0" result="hardAlpha"/>
<feOffset dx="4.46208" dy="2.67725"/>
<feGaussianBlur stdDeviation="6.24691"/>
<feComposite in2="hardAlpha" operator="out"/>
<feColorMatrix type="matrix" values="0 0 0 0 0.49901 0 0 0 0 0.737409 0 0 0 0 0.8375 0 0 0 0.33 0"/>
<feBlend mode="normal" in2="effect1_dropShadow_169_6" result="effect2_dropShadow_169_6"/>
<feBlend mode="normal" in="SourceGraphic" in2="effect2_dropShadow_169_6" result="shape"/>
</filter>
<clipPath id="clip0_169_6">
<rect width="86.5644" height="86.5644" fill="white" transform="translate(45.709 44.709)"/>
</clipPath>
</defs>
</svg>
