<svg width="36" height="36" viewBox="0 0 36 36" fill="none" xmlns="http://www.w3.org/2000/svg">
<circle cx="18" cy="18" r="17" stroke="white" strokeWidth="2"/>
<path d="M26.2062 27.5127L24.5113 28.6071C19.8006 31.4319 16.1629 27.4799 14.2027 24.1372L14.19 24.1454L10.9474 19.1238L10.9524 19.1205C8.76513 15.9533 6.83028 11.1449 11.2534 8.07589L12.9483 6.98142C13.5144 6.61583 14.2694 6.77834 14.635 7.34449L17.0784 11.1284C17.4439 11.6945 17.2814 12.4495 16.7153 12.8151C16.5341 12.9155 14.9052 14.0272 14.7459 14.042C14.7456 14.0415 14.7007 14.0568 14.6548 14.0684C14.6428 14.0711 14.6303 14.0741 14.6183 14.0768C12.4294 13.9616 12.6414 15.5388 13.6153 17.3866C13.617 17.3905 13.6193 17.3941 13.6208 17.3975L16.8634 22.419L16.8477 22.4292C16.8798 22.4734 16.9286 22.5378 16.9894 22.614C17.3301 23.0411 18.4669 24.4641 19.4108 24.2456C19.5105 24.2224 20.0499 24.079 20.4264 23.0711C20.4337 23.0613 20.4416 23.0512 20.449 23.0414C20.4784 23.0043 20.5109 22.9696 20.5106 22.9691C20.5896 22.8301 22.2731 21.8029 22.4391 21.679C23.0053 21.3134 23.7602 21.476 24.1258 22.0421L26.5692 25.826C26.9348 26.3921 26.7723 27.1471 26.2062 27.5127Z" fill="white"/>
</svg>
