<svg width="36" height="36" viewBox="0 0 36 36" fill="none" xmlns="http://www.w3.org/2000/svg">
<circle cx="18" cy="18" r="17" stroke="white" strokeWidth="2"/>
<path fillRule="evenodd" clipRule="evenodd" d="M27.4935 13.8724C27.6482 13.3592 27.4935 13 26.7713 13H24.364C23.745 13 23.4699 13.325 23.3151 13.6842C23.3151 13.6842 22.0943 16.6605 20.3576 18.5763C19.7902 19.1408 19.5495 19.3118 19.24 19.3118C19.0852 19.3118 18.8617 19.1408 18.8617 18.6276V13.8724C18.8617 13.2566 18.6897 13 18.1739 13H14.391C14.0128 13 13.772 13.2908 13.772 13.5474C13.772 14.1289 14.6318 14.2658 14.7349 15.8737V19.3974C14.7349 20.1671 14.5974 20.3039 14.2879 20.3039C13.4797 20.3039 11.4851 17.3276 10.3159 13.9066C10.0752 13.2737 9.85163 13 9.23262 13H6.82535C6.13756 13 6 13.325 6 13.6842C6 14.3171 6.80815 17.4645 9.80004 21.6211C11.7946 24.4605 14.5974 26 17.1422 26C18.6725 26 18.8617 25.6579 18.8617 25.0763V22.9211C18.8617 22.2368 18.9992 22.1 19.4979 22.1C19.859 22.1 20.4608 22.2711 21.888 23.6395C23.5215 25.2645 23.7966 26 24.7079 26H27.1152C27.803 26 28.1469 25.6579 27.9405 24.9908C27.717 24.3237 26.9432 23.3487 25.9115 22.1855C25.3441 21.5184 24.5016 20.8171 24.2608 20.4579C23.8998 19.9961 24.0029 19.7908 24.2608 19.3974C24.2608 19.3803 27.2012 15.275 27.4935 13.8724Z" fill="white"/>
</svg>
