<svg width="165" height="165" viewBox="0 0 165 165" fill="none" xmlns="http://www.w3.org/2000/svg">
<g filter="url(#filter0_dd_169_5)">
<circle cx="88.3755" cy="87.545" r="53.545" fill="#E7F3FF"/>
</g>
<g clip-path="url(#clip0_169_5)">
<path d="M88.7819 131.197C112.686 131.197 132.064 111.819 132.064 87.915C132.064 64.0109 112.686 44.6328 88.7819 44.6328C64.8779 44.6328 45.4998 64.0109 45.4998 87.915C45.4998 111.819 64.8779 131.197 88.7819 131.197Z" fill="#28ABE2"/>
<path d="M122.778 93.1365C120.577 105.702 108.408 122.056 89.1733 122.056C69.9058 122.056 57.7348 105.647 55.5586 93.0656" fill="white"/>
<path d="M70.24 101.156C74.951 101.156 78.7701 97.3369 78.7701 92.6259C78.7701 87.9149 74.951 84.0958 70.24 84.0958C65.529 84.0958 61.71 87.9149 61.71 92.6259C61.71 97.3369 65.529 101.156 70.24 101.156Z" fill="#28ABE2"/>
<path d="M89.2894 101.156C94.0004 101.156 97.8194 97.3369 97.8194 92.6259C97.8194 87.9149 94.0004 84.0958 89.2894 84.0958C84.5784 84.0958 80.7593 87.9149 80.7593 92.6259C80.7593 97.3369 84.5784 101.156 89.2894 101.156Z" fill="#28ABE2"/>
<path d="M108.34 101.156C113.051 101.156 116.871 97.3369 116.871 92.6259C116.871 87.9149 113.051 84.0958 108.34 84.0958C103.629 84.0958 99.8104 87.9149 99.8104 92.6259C99.8104 97.3369 103.629 101.156 108.34 101.156Z" fill="#28ABE2"/>
<path d="M94.5456 57.7213C92.8783 60.938 77.8075 90.4859 86.0224 97.373C86.6699 97.9166 87.494 98.3442 88.5501 98.5901C91.0743 98.9138 93.8513 97.0891 94.6079 94.8332C95.3922 92.4908 93.9137 90.0635 93.5639 89.4437C91.4916 85.7768 90.5359 77.4615 94.5456 57.7213Z" fill="white"/>
<path d="M74.8158 60.5398C73.3061 63.4276 59.3052 90.6348 67.1497 97.4059C67.7331 97.9097 68.4603 98.32 69.3726 98.5901C71.8969 98.9138 74.6738 97.0891 75.4304 94.8332C76.1853 92.5791 74.7898 90.1691 74.3865 89.4437C72.4093 85.8963 71.2511 78.2977 74.8158 60.5398Z" fill="white"/>
<path d="M112.769 68.5055C104.071 81.2201 100.543 92.5565 104.587 96.9055C105.231 97.5981 106.164 98.2161 107.551 98.5901C110.075 98.9138 112.852 97.0891 113.609 94.8332C114.338 92.6604 113.056 90.3769 112.565 89.4437C110.775 86.0417 109.622 80.0151 112.769 68.5055Z" fill="white"/>
</g>
<defs>
<filter id="filter0_dd_169_5" x="0.0263329" y="0.0881829" width="164.204" height="164.204" filterUnits="userSpaceOnUse" color-interpolation-filters="sRGB">
<feFlood flood-opacity="0" result="BackgroundImageFix"/>
<feColorMatrix in="SourceAlpha" type="matrix" values="0 0 0 0 0 0 0 0 0 0 0 0 0 0 0 0 0 0 127 0" result="hardAlpha"/>
<feOffset dx="-6.24691" dy="-5.3545"/>
<feGaussianBlur stdDeviation="14.2787"/>
<feComposite in2="hardAlpha" operator="out"/>
<feColorMatrix type="matrix" values="0 0 0 0 1 0 0 0 0 1 0 0 0 0 1 0 0 0 0.89 0"/>
<feBlend mode="normal" in2="BackgroundImageFix" result="effect1_dropShadow_169_5"/>
<feColorMatrix in="SourceAlpha" type="matrix" values="0 0 0 0 0 0 0 0 0 0 0 0 0 0 0 0 0 0 127 0" result="hardAlpha"/>
<feOffset dx="4.46208" dy="2.67725"/>
<feGaussianBlur stdDeviation="6.24691"/>
<feComposite in2="hardAlpha" operator="out"/>
<feColorMatrix type="matrix" values="0 0 0 0 0.49901 0 0 0 0 0.737409 0 0 0 0 0.8375 0 0 0 0.33 0"/>
<feBlend mode="normal" in2="effect1_dropShadow_169_5" result="effect2_dropShadow_169_5"/>
<feBlend mode="normal" in="SourceGraphic" in2="effect2_dropShadow_169_5" result="shape"/>
</filter>
<clipPath id="clip0_169_5">
<rect width="86.5644" height="86.5644" fill="white" transform="translate(45.5396 44.709)"/>
</clipPath>
</defs>
</svg>
