<svg width="88" height="88" viewBox="0 0 88 88" fill="none" xmlns="http://www.w3.org/2000/svg">
<g clip-path="url(#clip0_35_60)">
<path d="M43.7819 87.1972C67.686 87.1972 87.0641 67.8191 87.0641 43.915C87.0641 20.0109 67.686 0.632812 43.7819 0.632812C19.8779 0.632812 0.499756 20.0109 0.499756 43.915C0.499756 67.8191 19.8779 87.1972 43.7819 87.1972Z" fill="#28ABE2"/>
<path d="M77.7776 49.1365C75.5771 61.7022 63.4079 78.056 44.1733 78.056C24.9058 78.056 12.7348 61.6468 10.5586 49.0656" fill="white"/>
<path d="M25.24 57.1559C29.951 57.1559 33.7701 53.3369 33.7701 48.6259C33.7701 43.9149 29.951 40.0958 25.24 40.0958C20.529 40.0958 16.71 43.9149 16.71 48.6259C16.71 53.3369 20.529 57.1559 25.24 57.1559Z" fill="#28ABE2"/>
<path d="M44.2894 57.1559C49.0004 57.1559 52.8194 53.3369 52.8194 48.6259C52.8194 43.9149 49.0004 40.0958 44.2894 40.0958C39.5784 40.0958 35.7593 43.9149 35.7593 48.6259C35.7593 53.3369 39.5784 57.1559 44.2894 57.1559Z" fill="#28ABE2"/>
<path d="M63.3405 57.1559C68.0515 57.1559 71.8705 53.3369 71.8705 48.6259C71.8705 43.9149 68.0515 40.0958 63.3405 40.0958C58.6294 40.0958 54.8104 43.9149 54.8104 48.6259C54.8104 53.3369 58.6294 57.1559 63.3405 57.1559Z" fill="#28ABE2"/>
<path d="M49.5456 13.7213C47.8783 16.938 32.8075 46.4859 41.0224 53.373C41.6699 53.9166 42.494 54.3442 43.5501 54.5901C46.0743 54.9138 48.8513 53.0891 49.6079 50.8332C50.3922 48.4908 48.9137 46.0635 48.5639 45.4437C46.4916 41.7768 45.5359 33.4615 49.5456 13.7213Z" fill="white"/>
<path d="M29.8158 16.5398C28.3061 19.4276 14.3052 46.6348 22.1497 53.4059C22.7331 53.9097 23.4603 54.32 24.3726 54.5901C26.8969 54.9138 29.6738 53.0891 30.4304 50.8332C31.1853 48.5791 29.7898 46.1691 29.3865 45.4437C27.4093 41.8963 26.2511 34.2977 29.8158 16.5398Z" fill="white"/>
<path d="M67.7691 24.5055C59.0711 37.2201 55.5427 48.5565 59.587 52.9055C60.2311 53.5981 61.1642 54.2161 62.551 54.5901C65.0752 54.9138 67.8522 53.0891 68.6088 50.8332C69.3376 48.6604 68.0565 46.3769 67.5648 45.4437C65.7747 42.0417 64.6216 36.0151 67.7691 24.5055Z" fill="white"/>
</g>
<defs>
<clipPath id="clip0_35_60">
<rect width="86.5644" height="86.5644" fill="white" transform="translate(0.539551 0.708984)"/>
</clipPath>
</defs>
</svg>
