<svg width="88" height="88" viewBox="0 0 88 88" fill="none" xmlns="http://www.w3.org/2000/svg">
<g clip-path="url(#clip0_35_142)">
<path d="M44.1892 86.9312C67.9375 86.9312 87.1892 67.6794 87.1892 43.9312C87.1892 20.1829 67.9375 0.931152 44.1892 0.931152C20.441 0.931152 1.18921 20.1829 1.18921 43.9312C1.18921 67.6794 20.441 86.9312 44.1892 86.9312Z" fill="#28ABE2"/>
<path d="M36.584 16.1006C35.9869 16.4082 37.9129 19.3301 38.7604 23.117C40.9753 33.0361 33.2134 37.3997 35.1779 46.2231C36.4684 52.0092 41.2257 56.6228 42.8243 56.1038C44.3267 55.604 42.2658 50.7213 42.4777 40.8983C42.6895 31.2291 44.8852 27.9228 42.2273 22.4634C40.4553 18.7726 37.2388 15.7546 36.584 16.1006Z" fill="white"/>
<path d="M51.9923 16.0237C52.5894 16.3313 50.7404 19.2724 49.97 23.0978C47.9861 33.0553 55.8444 37.246 54.0917 46.127C52.9361 51.9324 48.2751 56.6612 46.6764 56.1806C45.1549 55.7193 47.1194 50.779 46.6764 40.956C46.2334 31.2868 43.98 28.0381 46.5031 22.5211C48.198 18.7918 51.3375 15.6969 51.9923 16.0237Z" fill="white"/>
<path d="M66.1873 21.0986C65.8984 20.5219 54.0147 23.5784 53.3791 29.2299C53.0131 32.4786 56.557 33.8243 57.5008 38.5339C58.406 42.9744 56.3259 47.2227 54.1687 50.3368C55.1318 49.4141 56.6533 48.2031 58.772 47.3188C59.8891 46.8575 60.9292 46.5691 61.7959 46.3961C62.9515 43.5319 64.0301 39.4566 62.3737 35.785C60.8329 32.3825 58.0401 31.7482 57.9245 29.2299C57.7512 24.7894 66.4569 21.6176 66.1873 21.0986Z" fill="white"/>
<path d="M46.4453 58.6027C46.3875 58.0068 47.8513 57.7185 49.8929 56.3921C52.3968 54.7389 52.3775 53.7585 54.554 51.8555C57.6934 49.1066 61.3914 47.9724 64.0686 47.165C66.7843 46.3385 67.2273 46.5884 68.8259 45.7233C72.3313 43.8202 73.5448 40.7638 73.9107 40.9752C74.3152 41.2059 73.3907 45.3196 70.2127 48.3761C68.1133 50.3945 67.0925 49.9524 63.7604 51.8555C57.4815 55.4502 57.3852 59.1218 52.859 59.9868C49.7388 60.5635 46.5223 59.4486 46.4453 58.6027Z" fill="white"/>
<path d="M42.5547 58.6027C42.6125 58.0068 41.1487 57.7185 39.1071 56.3921C36.6032 54.7389 36.6225 53.7585 34.446 51.8555C31.3066 49.1066 27.6086 47.9724 24.9314 47.165C22.2157 46.3385 21.7727 46.5884 20.1741 45.7233C16.6687 43.8202 15.4552 40.7638 15.0893 40.9752C14.6848 41.2059 15.6093 45.3196 18.7873 48.3761C20.8867 50.3945 21.9075 49.9524 25.2396 51.8555C31.5185 55.4502 31.6148 59.1218 36.141 59.9868C39.2419 60.5635 42.4777 59.4486 42.5547 58.6027Z" fill="white"/>
<path d="M68.1518 40.264C67.0347 40.8983 65.8984 41.0713 65.0124 41.1098C65.0124 41.6288 64.9739 42.2247 64.8583 42.8783C64.6464 44.0509 64.2612 45.0121 63.9145 45.7233C64.9161 45.6849 66.8806 45.4734 68.7296 44.147C69.6541 43.4742 70.1934 42.7822 70.4246 42.4746C72.4084 39.7834 72.2543 36.1118 71.6957 35.9772C71.1757 35.8042 70.7712 38.7453 68.1518 40.264Z" fill="white"/>
<path d="M23.1209 21.0986C23.4098 20.5219 35.2935 23.5784 35.9291 29.2299C36.2951 32.4786 32.7511 33.8243 31.8074 38.5339C30.9021 42.9744 32.9823 47.2227 35.1394 50.3368C34.1764 49.4141 32.6548 48.2031 30.5362 47.3188C29.4191 46.8575 28.379 46.5691 27.5123 46.3961C26.3567 43.5319 25.2781 39.4566 26.9345 35.785C28.4753 32.3825 31.2681 31.7482 31.3836 29.2299C31.557 24.7894 22.8513 21.6176 23.1209 21.0986Z" fill="white"/>
<path d="M21.1563 40.264C22.2734 40.8983 23.4098 41.0713 24.2958 41.1098C24.2958 41.6288 24.3343 42.2247 24.4499 42.8783C24.6617 44.0509 25.047 45.0121 25.3936 45.7233C24.3921 45.6849 22.4275 45.4734 20.5785 44.147C19.654 43.4742 19.1147 42.7822 18.8836 42.4746C16.8998 39.7834 17.0539 36.1118 17.6124 35.9772C18.1325 35.8042 18.5369 38.7453 21.1563 40.264Z" fill="white"/>
<path d="M42.7088 60.7365C42.728 60.6596 43.094 58.8719 44.057 58.7181C45.0008 58.5643 45.8675 60.1214 46.1564 60.6404C47.2735 62.6396 47.1579 64.5619 46.9076 68.5987C46.8498 69.656 46.715 71.8282 46.5416 74.8462C44.8274 74.9039 43.1132 74.9423 41.3991 75C42.131 73.0585 42.9399 70.2519 43.1132 66.811C43.2095 64.4273 42.9977 62.3705 42.7088 60.7365Z" fill="white"/>
<path d="M64.839 30.095C63.5486 31.2676 62.9322 32.6516 62.6433 33.5551C63.0671 34.0549 63.6064 34.7662 64.0686 35.6697C64.5309 36.5731 64.7812 37.3997 64.9161 38.0533C65.8984 36.4386 66.4376 35.0545 66.7651 34.0549C67.2466 32.5363 67.1695 32.075 67.6896 31.0946C68.8452 28.98 70.752 28.461 70.5979 28.115C70.386 27.6921 67.1503 27.9805 64.839 30.095Z" fill="white"/>
<path d="M24.4306 30.095C25.7211 31.2676 26.3374 32.6516 26.6263 33.5551C26.2026 34.0549 25.6633 34.7662 25.201 35.6697C24.7388 36.5731 24.4884 37.3997 24.3536 38.0533C23.3713 36.4386 22.832 35.0545 22.5046 34.0549C22.0231 32.5363 22.1001 32.075 21.5801 31.0946C20.4244 28.98 18.5177 28.461 18.6717 28.115C18.8643 27.6921 22.1194 27.9805 24.4306 30.095Z" fill="white"/>
</g>
<defs>
<clipPath id="clip0_35_142">
<rect width="86" height="86" fill="white" transform="translate(1 1)"/>
</clipPath>
</defs>
</svg>
