<svg width="165" height="165" viewBox="0 0 165 165" fill="none" xmlns="http://www.w3.org/2000/svg">
<g filter="url(#filter0_dd_169_7)">
<circle cx="88.4551" cy="87.545" r="53.545" fill="#E7F3FF"/>
</g>
<g clip-path="url(#clip0_169_7)">
<path d="M89.1892 130.931C112.937 130.931 132.189 111.679 132.189 87.9312C132.189 64.1829 112.937 44.9312 89.1892 44.9312C65.441 44.9312 46.1892 64.1829 46.1892 87.9312C46.1892 111.679 65.441 130.931 89.1892 130.931Z" fill="#28ABE2"/>
<path d="M81.584 60.1006C80.9869 60.4082 82.9129 63.3301 83.7604 67.117C85.9753 77.0361 78.2134 81.3997 80.1779 90.2231C81.4684 96.0092 86.2257 100.623 87.8243 100.104C89.3267 99.604 87.2658 94.7213 87.4777 84.8983C87.6895 75.2291 89.8852 71.9228 87.2273 66.4634C85.4553 62.7726 82.2388 59.7546 81.584 60.1006Z" fill="white"/>
<path d="M96.9923 60.0237C97.5894 60.3313 95.7404 63.2724 94.97 67.0978C92.9861 77.0553 100.844 81.246 99.0917 90.127C97.9361 95.9324 93.2751 100.661 91.6764 100.181C90.1549 99.7193 92.1194 94.779 91.6764 84.956C91.2334 75.2868 88.98 72.0381 91.5031 66.5211C93.198 62.7918 96.3375 59.6969 96.9923 60.0237Z" fill="white"/>
<path d="M111.187 65.0986C110.898 64.5219 99.0147 67.5784 98.3791 73.2299C98.0131 76.4786 101.557 77.8243 102.501 82.5339C103.406 86.9744 101.326 91.2227 99.1687 94.3368C100.132 93.4141 101.653 92.2031 103.772 91.3188C104.889 90.8575 105.929 90.5691 106.796 90.3961C107.952 87.5319 109.03 83.4566 107.374 79.785C105.833 76.3825 103.04 75.7482 102.925 73.2299C102.751 68.7894 111.457 65.6176 111.187 65.0986Z" fill="white"/>
<path d="M91.4453 102.603C91.3875 102.007 92.8513 101.718 94.8929 100.392C97.3968 98.7389 97.3775 97.7585 99.554 95.8555C102.693 93.1066 106.391 91.9724 109.069 91.165C111.784 90.3385 112.227 90.5884 113.826 89.7233C117.331 87.8202 118.545 84.7638 118.911 84.9752C119.315 85.2059 118.391 89.3196 115.213 92.3761C113.113 94.3945 112.092 93.9524 108.76 95.8555C102.482 99.4502 102.385 103.122 97.859 103.987C94.7388 104.563 91.5223 103.449 91.4453 102.603Z" fill="white"/>
<path d="M87.5547 102.603C87.6125 102.007 86.1487 101.718 84.1071 100.392C81.6032 98.7389 81.6225 97.7585 79.446 95.8555C76.3066 93.1066 72.6086 91.9724 69.9314 91.165C67.2157 90.3385 66.7727 90.5884 65.1741 89.7233C61.6687 87.8202 60.4552 84.7638 60.0893 84.9752C59.6848 85.2059 60.6093 89.3196 63.7873 92.3761C65.8867 94.3945 66.9075 93.9524 70.2396 95.8555C76.5185 99.4502 76.6148 103.122 81.141 103.987C84.2419 104.563 87.4777 103.449 87.5547 102.603Z" fill="white"/>
<path d="M113.152 84.264C112.035 84.8983 110.898 85.0713 110.012 85.1098C110.012 85.6288 109.974 86.2247 109.858 86.8783C109.646 88.0509 109.261 89.0121 108.915 89.7233C109.916 89.6849 111.881 89.4734 113.73 88.147C114.654 87.4742 115.193 86.7822 115.425 86.4746C117.408 83.7834 117.254 80.1118 116.696 79.9772C116.176 79.8042 115.771 82.7453 113.152 84.264Z" fill="white"/>
<path d="M68.1209 65.0986C68.4098 64.5219 80.2935 67.5784 80.9291 73.2299C81.2951 76.4786 77.7511 77.8243 76.8074 82.5339C75.9021 86.9744 77.9823 91.2227 80.1394 94.3368C79.1764 93.4141 77.6548 92.2031 75.5362 91.3188C74.4191 90.8575 73.379 90.5691 72.5123 90.3961C71.3567 87.5319 70.2781 83.4566 71.9345 79.785C73.4753 76.3825 76.2681 75.7482 76.3836 73.2299C76.557 68.7894 67.8513 65.6176 68.1209 65.0986Z" fill="white"/>
<path d="M66.1563 84.264C67.2734 84.8983 68.4098 85.0713 69.2958 85.1098C69.2958 85.6288 69.3343 86.2247 69.4499 86.8783C69.6617 88.0509 70.047 89.0121 70.3936 89.7233C69.3921 89.6849 67.4275 89.4734 65.5785 88.147C64.654 87.4742 64.1147 86.7822 63.8836 86.4746C61.8998 83.7834 62.0539 80.1118 62.6124 79.9772C63.1325 79.8042 63.5369 82.7453 66.1563 84.264Z" fill="white"/>
<path d="M87.7088 104.737C87.728 104.66 88.094 102.872 89.057 102.718C90.0008 102.564 90.8675 104.121 91.1564 104.64C92.2735 106.64 92.1579 108.562 91.9076 112.599C91.8498 113.656 91.715 115.828 91.5416 118.846C89.8274 118.904 88.1132 118.942 86.3991 119C87.131 117.058 87.9399 114.252 88.1132 110.811C88.2095 108.427 87.9977 106.37 87.7088 104.737Z" fill="white"/>
<path d="M109.839 74.095C108.549 75.2676 107.932 76.6516 107.643 77.5551C108.067 78.0549 108.606 78.7662 109.069 79.6697C109.531 80.5731 109.781 81.3997 109.916 82.0533C110.898 80.4386 111.438 79.0545 111.765 78.0549C112.247 76.5363 112.17 76.075 112.69 75.0946C113.845 72.98 115.752 72.461 115.598 72.115C115.386 71.6921 112.15 71.9805 109.839 74.095Z" fill="white"/>
<path d="M69.4306 74.095C70.7211 75.2676 71.3374 76.6516 71.6263 77.5551C71.2026 78.0549 70.6633 78.7662 70.201 79.6697C69.7388 80.5731 69.4884 81.3997 69.3536 82.0533C68.3713 80.4386 67.832 79.0545 67.5046 78.0549C67.0231 76.5363 67.1001 76.075 66.5801 75.0946C65.4244 72.98 63.5177 72.461 63.6717 72.115C63.8643 71.6921 67.1194 71.9805 69.4306 74.095Z" fill="white"/>
</g>
<defs>
<filter id="filter0_dd_169_7" x="0.105923" y="0.0881829" width="164.204" height="164.204" filterUnits="userSpaceOnUse" color-interpolation-filters="sRGB">
<feFlood flood-opacity="0" result="BackgroundImageFix"/>
<feColorMatrix in="SourceAlpha" type="matrix" values="0 0 0 0 0 0 0 0 0 0 0 0 0 0 0 0 0 0 127 0" result="hardAlpha"/>
<feOffset dx="-6.24691" dy="-5.3545"/>
<feGaussianBlur stdDeviation="14.2787"/>
<feComposite in2="hardAlpha" operator="out"/>
<feColorMatrix type="matrix" values="0 0 0 0 1 0 0 0 0 1 0 0 0 0 1 0 0 0 0.89 0"/>
<feBlend mode="normal" in2="BackgroundImageFix" result="effect1_dropShadow_169_7"/>
<feColorMatrix in="SourceAlpha" type="matrix" values="0 0 0 0 0 0 0 0 0 0 0 0 0 0 0 0 0 0 127 0" result="hardAlpha"/>
<feOffset dx="4.46208" dy="2.67725"/>
<feGaussianBlur stdDeviation="6.24691"/>
<feComposite in2="hardAlpha" operator="out"/>
<feColorMatrix type="matrix" values="0 0 0 0 0.49901 0 0 0 0 0.737409 0 0 0 0 0.8375 0 0 0 0.33 0"/>
<feBlend mode="normal" in2="effect1_dropShadow_169_7" result="effect2_dropShadow_169_7"/>
<feBlend mode="normal" in="SourceGraphic" in2="effect2_dropShadow_169_7" result="shape"/>
</filter>
<clipPath id="clip0_169_7">
<rect width="86" height="86" fill="white" transform="translate(46 45)"/>
</clipPath>
</defs>
</svg>
